<svg width="28" height="34" viewBox="0 0 28 34" fill="none" xmlns="http://www.w3.org/2000/svg">
<path fill-rule="evenodd" clip-rule="evenodd" d="M15.8481 1.04003C16.7961 -0.0969715 18.6425 0.680028 18.4925 2.15303L17.4335 12.5H26C26.2851 12.5001 26.5642 12.5814 26.8046 12.7344C27.0451 12.8874 27.237 13.1058 27.3579 13.3639C27.4788 13.622 27.5236 13.9092 27.4872 14.1919C27.4507 14.4746 27.3345 14.741 27.1521 14.96L12.152 32.96C11.204 34.097 9.35755 33.32 9.50755 31.847L10.5665 21.5H2.00005C1.71503 21.4999 1.43594 21.4186 1.19546 21.2656C0.954975 21.1126 0.76306 20.8943 0.642184 20.6362C0.521308 20.378 0.476475 20.0908 0.512934 19.8082C0.549393 19.5255 0.665635 19.259 0.848049 19.04L15.8481 1.04003Z" fill="white"/>
</svg>
