<svg width="16" height="15" viewBox="0 0 16 15" fill="none" xmlns="http://www.w3.org/2000/svg">
<path d="M1.66911 14.6859H14.2289C15.5133 14.6859 16.3139 13.2932 15.6717 12.184L9.39181 1.33385C8.74964 0.224653 7.14839 0.224653 6.50622 1.33385L0.226319 12.184C-0.415849 13.2932 0.384776 14.6859 1.66911 14.6859ZM7.94901 8.84805C7.49032 8.84805 7.11503 8.47276 7.11503 8.01407V6.3461C7.11503 5.88741 7.49032 5.51211 7.94901 5.51211C8.40771 5.51211 8.783 5.88741 8.783 6.3461V8.01407C8.783 8.47276 8.40771 8.84805 7.94901 8.84805ZM8.783 12.184H7.11503V10.516H8.783V12.184Z" fill="#FF5050"/>
</svg>
